<svg xmlns="http://www.w3.org/2000/svg" width="22.094" height="18.001" viewBox="0 0 22.094 18.001">
  <g id="Group_2224" data-name="Group 2224" transform="translate(-1269.138 -1702)">
    <g id="Group_2102" data-name="Group 2102" transform="translate(1277.516 1707.343)">
      <path id="Path_908" data-name="Path 908" d="M772.344,665.9H772.2v4.354a2.91,2.91,0,0,1-3.027,3.117h-8.747v1.572a1.451,1.451,0,0,0,1.526,1.589h7.978a14.491,14.491,0,0,1,1.749,2.023v-2.023h.873a1.494,1.494,0,0,0,1.59-1.59v-7.454A1.624,1.624,0,0,0,772.344,665.9Z" transform="translate(-760.423 -665.898)" fill="#fff"/>
    </g>
    <g id="Group_2103" data-name="Group 2103" transform="translate(1269.138 1702)">
      <path id="Path_909" data-name="Path 909" d="M755,665.841a.83.83,0,1,0,.83.83A.831.831,0,0,0,755,665.841Z" transform="translate(-749.56 -660.532)" fill="#fff"/>
      <circle id="Ellipse_234" data-name="Ellipse 234" cx="0.83" cy="0.83" r="0.83" transform="translate(8.813 5.309)" fill="#fff"/>
      <path id="Path_910" data-name="Path 910" d="M763.265,657.032h-14.2a2.3,2.3,0,0,0-2.542,2.25v7.447a2.115,2.115,0,0,0,2.25,2.251h1.236v2.44s1.74-2.434,2.052-2.44l11.587,0a2.054,2.054,0,0,0,2.159-2.249v-7.447C765.806,657.851,764.873,657.032,763.265,657.032Zm-11.3,7.836a1.7,1.7,0,1,1,1.7-1.7A1.7,1.7,0,0,1,751.96,664.868Zm4.2,0a1.7,1.7,0,1,1,1.7-1.7A1.7,1.7,0,0,1,756.164,664.868Zm4.2,0a1.7,1.7,0,1,1,1.7-1.7A1.7,1.7,0,0,1,760.367,664.868Z" transform="translate(-746.521 -657.032)" fill="#fff"/>
      <path id="Path_911" data-name="Path 911" d="M768.947,665.841a.83.83,0,1,0,.831.83A.831.831,0,0,0,768.947,665.841Z" transform="translate(-755.101 -660.532)" fill="#fff"/>
    </g>
  </g>
</svg>
