<?xml version="1.0" encoding="utf-8"?>
<!-- Generator: Adobe Illustrator 16.2.1, SVG Export Plug-In . SVG Version: 6.00 Build 0)  -->
<!DOCTYPE svg PUBLIC "-//W3C//DTD SVG 1.1//EN" "http://www.w3.org/Graphics/SVG/1.1/DTD/svg11.dtd">
<svg version="1.1" id="Layer_1" xmlns="http://www.w3.org/2000/svg" xmlns:xlink="http://www.w3.org/1999/xlink" x="0px" y="0px"
	 width="29px" height="29px" viewBox="-2 -2 29 29" style="enable-background:new -2 -2 29 29;" xml:space="preserve">
<g>
	<g>
		<linearGradient id="SVGID_1_" gradientUnits="userSpaceOnUse" x1="12.5444" y1="-1.625" x2="12.5444" y2="26.4931">
			<stop  offset="0" style="stop-color:#CBD9E0"/>
			<stop  offset="1" style="stop-color:#9BABB5"/>
		</linearGradient>
		<path style="fill:url(#SVGID_1_);" d="M2.879,26.771c-2.542,0-4.607-2.065-4.607-4.609V2.834c0-2.542,2.066-4.607,4.607-4.607
			h19.334c2.542,0,4.604,2.066,4.604,4.607v19.328c0,2.544-2.062,4.609-4.604,4.609H2.879z"/>
		<g>
			<path style="fill:#A3A8AC;" d="M22.213-1.547c2.416,0,4.38,1.967,4.38,4.381v19.328c0,2.419-1.964,4.385-4.38,4.385H2.879
				c-2.414,0-4.382-1.966-4.382-4.385V2.834c0-2.414,1.968-4.381,4.382-4.381H22.213 M22.213-2H2.879
				C0.223-2-1.953,0.175-1.953,2.834v19.328c0,2.664,2.176,4.835,4.832,4.835h19.334c2.659,0,4.834-2.171,4.834-4.835V2.834
				C27.047,0.175,24.872-2,22.213-2L22.213-2z"/>
		</g>
	</g>
	<g>
		<g>
			<g>
				<rect x="7.109" y="14.313" style="fill:#51585C;" width="1.813" height="7.248"/>
				<g>
					<linearGradient id="SVGID_2_" gradientUnits="userSpaceOnUse" x1="15.7266" y1="9.9585" x2="25.1066" y2="23.2909">
						<stop  offset="0" style="stop-color:#FFFFFF"/>
						<stop  offset="1" style="stop-color:#C7C7C7"/>
					</linearGradient>
					<path style="fill:url(#SVGID_2_);" d="M14.586,26.771V15.872h-3.627V7.289h15.859v14.874c0,2.544-2.062,4.609-4.604,4.609
						H14.586z"/>
					<path style="fill:#ABABB0;" d="M26.593,7.515v14.647c0,2.419-1.964,4.385-4.38,4.385h-7.399v-10.45v-0.453h-0.457h-3.17V7.515
						H26.593 M27.047,7.062H10.733v9.035h3.624v10.9h7.856c2.659,0,4.834-2.171,4.834-4.835V7.062L27.047,7.062z"/>
				</g>
				<linearGradient id="SVGID_3_" gradientUnits="userSpaceOnUse" x1="18.8906" y1="0.9448" x2="18.8906" y2="23.7499">
					<stop  offset="0" style="stop-color:#B8BCBF"/>
					<stop  offset="1" style="stop-color:#868E93"/>
				</linearGradient>
				<path style="fill:url(#SVGID_3_);" d="M10.733,16.097h3.624v10.9h7.856c1.517,0,2.852-0.712,3.736-1.811h-9.777v-9.09v-1.812
					h-1.815h-1.81V8.818h14.5V7.062H10.733V16.097z"/>
				<g>
					<linearGradient id="SVGID_4_" gradientUnits="userSpaceOnUse" x1="16.2188" y1="12.8013" x2="28.8454" y2="29.3348">
						<stop  offset="0" style="stop-color:#FFFFFF"/>
						<stop  offset="1" style="stop-color:#000000"/>
					</linearGradient>
					<polygon style="fill:url(#SVGID_4_);" points="14.356,8.818 14.356,14.285 16.172,14.285 16.172,14.285 16.172,8.818 					"/>
					<linearGradient id="SVGID_5_" gradientUnits="userSpaceOnUse" x1="13.4189" y1="14.9443" x2="26.0455" y2="31.4778">
						<stop  offset="0" style="stop-color:#FFFFFF"/>
						<stop  offset="1" style="stop-color:#000000"/>
					</linearGradient>
					<polygon style="fill:url(#SVGID_5_);" points="17.984,14.285 16.172,14.285 16.172,14.285 16.172,16.097 16.172,25.187 
						17.984,25.187 17.984,16.097 					"/>
				</g>
				<linearGradient id="SVGID_6_" gradientUnits="userSpaceOnUse" x1="20.7031" y1="19.6357" x2="20.7031" y2="25.1998">
					<stop  offset="0" style="stop-color:#A6A9AB"/>
					<stop  offset="1" style="stop-color:#787E81"/>
				</linearGradient>
				<rect x="19.798" y="19.749" style="fill:url(#SVGID_6_);" width="1.812" height="5.438"/>
				<g style="opacity:0.6;">
					<linearGradient id="SVGID_7_" gradientUnits="userSpaceOnUse" x1="21.6094" y1="14.5947" x2="21.6094" y2="8.809">
						<stop  offset="0" style="stop-color:#DFE3E5"/>
						<stop  offset="1" style="stop-color:#BDC6CB"/>
					</linearGradient>
					<rect x="16.172" y="3.382" style="fill:url(#SVGID_7_);" width="10.875" height="10.873"/>
				</g>
				<g>
					<linearGradient id="SVGID_8_" gradientUnits="userSpaceOnUse" x1="19.3574" y1="3.667" x2="24.6888" y2="11.9245">
						<stop  offset="0" style="stop-color:#FFFFFF"/>
						<stop  offset="1" style="stop-color:#C7C7C7"/>
					</linearGradient>
					<path style="fill:url(#SVGID_8_);" d="M16.399,12.274V1.851h10.3c0.076,0.356,0.118,0.679,0.118,0.983v9.44H16.399z"/>
					<path style="fill:#ABABB0;" d="M26.514,2.078c0.056,0.27,0.079,0.515,0.079,0.756v9.213h-9.972V2.078H26.514 M26.872,1.624
						h-10.7v10.877h10.875V2.834C27.047,2.415,26.979,2.011,26.872,1.624L26.872,1.624z"/>
				</g>
				<g>
					<g>
						<linearGradient id="SVGID_9_" gradientUnits="userSpaceOnUse" x1="5.5518" y1="7.896" x2="10.9809" y2="15.8775">
							<stop  offset="0" style="stop-color:#FFFFFF"/>
							<stop  offset="1" style="stop-color:#C7C7C7"/>
						</linearGradient>
						<path style="fill:url(#SVGID_9_);" d="M1.896,15.899V7.065v0.001c0.093,0,3.567-3.402,6.119-3.402
							c2.593,0,6.148,3.522,6.179,3.558l-0.059,8.677H1.896z"/>
						<path style="fill:#ABABB0;" d="M8.015,3.891c2.221,0,5.228,2.734,5.892,3.364v8.416H2.125V7.255
							C2.787,6.625,5.789,3.891,8.015,3.891 M8.015,3.438c-2.72,0-6.347,3.624-6.347,3.624v9.062h12.688V7.062
							C14.356,7.062,10.733,3.438,8.015,3.438L8.015,3.438z"/>
					</g>
				</g>
				<g>
					<linearGradient id="SVGID_10_" gradientUnits="userSpaceOnUse" x1="8.0156" y1="21.4424" x2="8.0156" y2="24.6329">
						<stop  offset="0" style="stop-color:#FFFFFF"/>
						<stop  offset="1" style="stop-color:#C7C7C7"/>
					</linearGradient>
					<path style="fill:url(#SVGID_10_);" d="M4.389,26.774c-0.377,0-0.679-0.309-0.679-0.679v-2.72c0-1.873,1.525-3.399,3.399-3.399
						h1.813c1.874,0,3.399,1.526,3.399,3.399v2.72c0,0.37-0.309,0.679-0.682,0.679H4.389z"/>
					<path style="fill:#ABABB0;" d="M8.922,20.205c1.746,0,3.171,1.421,3.171,3.171v0.907v1.812c0,0.249-0.201,0.451-0.454,0.451
						H4.389c-0.25,0-0.451-0.202-0.451-0.451v-2.72c0-1.75,1.424-3.171,3.171-3.171H8.922 M8.922,19.749H7.109
						c-1.996,0-3.627,1.634-3.627,3.627v2.72c0,0.5,0.41,0.904,0.907,0.904h7.251c0.497,0,0.907-0.404,0.907-0.904v-1.812v-0.907
						C12.546,21.383,10.917,19.749,8.922,19.749L8.922,19.749z"/>
				</g>
				<linearGradient id="SVGID_11_" gradientUnits="userSpaceOnUse" x1="21.6094" y1="-0.5811" x2="21.6094" y2="10.7227">
					<stop  offset="0" style="stop-color:#B8BCBF"/>
					<stop  offset="1" style="stop-color:#868E93"/>
				</linearGradient>
				<path style="fill:url(#SVGID_11_);" d="M16.172,1.624v10.877h10.875V2.834c0-0.419-0.068-0.823-0.175-1.21H16.172z
					 M25.232,3.438v7.249h-7.248V3.352h7.248V3.438z"/>
				<linearGradient id="SVGID_12_" gradientUnits="userSpaceOnUse" x1="8.0122" y1="0.606" x2="8.0122" y2="13.4625">
					<stop  offset="0" style="stop-color:#B8BCBF"/>
					<stop  offset="1" style="stop-color:#868E93"/>
				</linearGradient>
				<path style="fill:url(#SVGID_12_);" d="M8.015,5.251c1.179,0,3.185,1.387,4.531,2.593v6.47H3.482v-6.47
					C4.831,6.638,6.832,5.251,8.015,5.251 M8.015,3.438c-2.72,0-6.347,3.624-6.347,3.624v9.062h12.688V7.062
					C14.356,7.062,10.733,3.438,8.015,3.438L8.015,3.438z"/>
				<linearGradient id="SVGID_13_" gradientUnits="userSpaceOnUse" x1="8.0142" y1="17.9365" x2="8.0142" y2="23.8279">
					<stop  offset="0" style="stop-color:#B8BCBF"/>
					<stop  offset="1" style="stop-color:#868E93"/>
				</linearGradient>
				<path style="fill:url(#SVGID_13_);" d="M8.922,21.562c0.999,0,1.811,0.814,1.811,1.814v0.907v0.903H5.295v-1.811
					c0-1,0.812-1.814,1.814-1.814H8.922 M8.922,19.749H7.109c-1.996,0-3.627,1.634-3.627,3.627v2.72c0,0.5,0.41,0.904,0.907,0.904
					h7.251c0.497,0,0.907-0.404,0.907-0.904v-1.812v-0.907C12.546,21.383,10.917,19.749,8.922,19.749L8.922,19.749z"/>
				<linearGradient id="SVGID_14_" gradientUnits="userSpaceOnUse" x1="5.1191" y1="4.5586" x2="13.4263" y2="27.5941">
					<stop  offset="0" style="stop-color:#FFFFFF"/>
					<stop  offset="1" style="stop-color:#000000"/>
				</linearGradient>
				<path style="fill:url(#SVGID_14_);" d="M4.956,8.75c1.347-1.207,3.348-2.594,4.531-2.594c0.426,0,0.961,0.185,1.535,0.476
					C9.943,5.868,8.798,5.251,8.015,5.251c-1.183,0-3.184,1.387-4.533,2.593v6.47h1.474V8.75z"/>
				<linearGradient id="SVGID_15_" gradientUnits="userSpaceOnUse" x1="7.8794" y1="22.1279" x2="7.8794" y2="25.3079">
					<stop  offset="0" style="stop-color:#FFFFFF"/>
					<stop  offset="1" style="stop-color:#000000"/>
				</linearGradient>
				<path style="fill:url(#SVGID_15_);" d="M6.767,24.283c0-1,0.812-1.813,1.813-1.813h1.814c0.027,0,0.046,0.011,0.07,0.011
					c-0.312-0.538-0.877-0.919-1.542-0.919H7.109c-1.001,0-1.814,0.814-1.814,1.814v1.811h1.472V24.283z"/>
				<linearGradient id="SVGID_16_" gradientUnits="userSpaceOnUse" x1="20.2891" y1="3.8247" x2="24.3098" y2="13.5651">
					<stop  offset="0" style="stop-color:#FFFFFF"/>
					<stop  offset="1" style="stop-color:#000000"/>
				</linearGradient>
				<polygon style="fill:url(#SVGID_16_);" points="19.798,5.168 25.232,5.168 25.232,3.438 25.232,3.352 17.984,3.352 
					17.984,10.687 19.798,10.687 				"/>
			</g>
		</g>
	</g>
	<g style="opacity:0.4;">
		<linearGradient id="SVGID_17_" gradientUnits="userSpaceOnUse" x1="12.5464" y1="25.1865" x2="12.5464" y2="11.3511">
			<stop  offset="0" style="stop-color:#FFFFFF"/>
			<stop  offset="1" style="stop-color:#000000"/>
		</linearGradient>
		<path style="fill:url(#SVGID_17_);" d="M22.213-0.186H2.879c-1.664,0-3.019,1.355-3.019,3.02v19.331
			c0,1.667,1.354,3.021,3.019,3.021h19.334c1.666,0,3.02-1.354,3.02-3.021V2.834C25.232,1.169,23.879-0.186,22.213-0.186z
			 M23.423,22.165c0,0.667-0.541,1.211-1.21,1.211H2.879c-0.667,0-1.211-0.544-1.211-1.211V2.834c0-0.668,0.543-1.21,1.211-1.21
			h19.334c0.669,0,1.21,0.542,1.21,1.21V22.165z"/>
	</g>
	<g>
		<linearGradient id="SVGID_18_" gradientUnits="userSpaceOnUse" x1="12.5464" y1="-1.8491" x2="12.5464" y2="26.7172">
			<stop  offset="0" style="stop-color:#E1E2E3"/>
			<stop  offset="1" style="stop-color:#B1B7BB"/>
		</linearGradient>
		<path style="fill:url(#SVGID_18_);" d="M22.213-2H2.879C0.223-2-1.953,0.175-1.953,2.834v19.331c0,2.661,2.176,4.835,4.832,4.835
			h19.334c2.659,0,4.834-2.174,4.834-4.835V2.834C27.047,0.175,24.872-2,22.213-2z M25.232,22.165c0,1.667-1.354,3.021-3.02,3.021
			H2.879c-1.664,0-3.019-1.354-3.019-3.021V2.834c0-1.665,1.354-3.02,3.019-3.02h19.334c1.666,0,3.02,1.355,3.02,3.02V22.165z"/>
	</g>
	<g style="opacity:0.9;">
		<linearGradient id="SVGID_19_" gradientUnits="userSpaceOnUse" x1="12.5464" y1="-0.1606" x2="12.5464" y2="4.6024">
			<stop  offset="0" style="stop-color:#FFFFFF"/>
			<stop  offset="1" style="stop-color:#000000"/>
		</linearGradient>
		<path style="fill:url(#SVGID_19_);" d="M22.213-0.186H2.879c-1.664,0-3.019,1.355-3.019,3.02v1.815
			c0-1.667,1.354-3.024,3.019-3.024h19.334c1.666,0,3.02,1.357,3.02,3.024V2.834C25.232,1.169,23.879-0.186,22.213-0.186z"/>
	</g>
</g>
</svg>
