<?xml version="1.0" encoding="utf-8"?>
<!-- Generator: Adobe Illustrator 16.2.1, SVG Export Plug-In . SVG Version: 6.00 Build 0)  -->
<!DOCTYPE svg PUBLIC "-//W3C//DTD SVG 1.1//EN" "http://www.w3.org/Graphics/SVG/1.1/DTD/svg11.dtd">
<svg version="1.1" id="Layer_1" xmlns="http://www.w3.org/2000/svg" xmlns:xlink="http://www.w3.org/1999/xlink" x="0px" y="0px"
	 width="29px" height="29px" viewBox="0 0 29 29" style="enable-background:new 0 0 29 29;" xml:space="preserve">
<g>
	<path style="fill:#00AFAA;" d="M28.546,6.491l-6.138-4.336c-0.626-0.441-1.136-0.189-1.136,0.564v2.419
		c-5.386,0.756-9.216,4.566-8.841,8.78c1.245-3.175,4.761-4.626,8.841-4.422v2.35c0,0.751,0.51,1.006,1.139,0.565L28.546,8.1
		C29.168,7.655,29.172,6.937,28.546,6.491z"/>
	<path style="fill:#732282;" d="M0.213,10.504l-0.037-0.027c-0.083,0.257-0.141,0.523-0.137,0.805L0.036,23.926
		c0.007,0.378,0.087,0.726,0.228,1.046l9.775-7.557L0.213,10.504z M14.027,17.679c0.609,0,1.178-0.173,1.6-0.481l5.141-3.624
		c-0.524-0.393-0.825-1.018-0.825-1.79v-0.907c-2.925,0.134-5.052,1.214-6.009,3.048c-0.02,0.07-0.16,0.372-0.2,0.434
		c-0.314,0.627-0.783,0.982-1.312,0.982c-0.562,0-1.177-0.428-1.278-1.376c-0.187-1.748,0.261-3.501,1.285-5.078L1.726,8.885
		c-0.298,0-0.572,0.083-0.82,0.206l11.505,8.093C12.842,17.506,13.411,17.679,14.027,17.679z M27.797,10.504l-9.735,6.854
		l9.732,7.521c0.109-0.291,0.177-0.616,0.174-0.953l0.01-12.642c-0.007-0.283-0.061-0.549-0.145-0.806L27.797,10.504z
		 M16.857,18.195l-0.575,0.413c-0.597,0.442-1.412,0.696-2.269,0.7h-0.01c-0.873,0-1.672-0.258-2.312-0.732l-0.448-0.311L1.19,26.05
		c0.365,0.23,0.793,0.378,1.254,0.374h23.117c0.502-0.003,0.971-0.16,1.352-0.428l-10.029-7.769
		C16.874,18.222,16.87,18.208,16.857,18.195z"/>
</g>
</svg>
