<svg xmlns="http://www.w3.org/2000/svg" width="22.317" height="18.001" viewBox="0 0 22.317 18.001">
  <g id="Group_2223" data-name="Group 2223" transform="translate(-1132.829 -1702)">
    <path id="Path_905" data-name="Path 905" d="M93.911,1167.427a.447.447,0,0,0-.445-.445H91.637a.446.446,0,0,0-.444.445v1.449h2.718Z" transform="translate(1057.233 535.018)" fill="#fff"/>
    <path id="Path_906" data-name="Path 906" d="M73.56,1167.427a.446.446,0,0,0-.445-.445H71.287a.446.446,0,0,0-.445.445v1.449H73.56Z" transform="translate(1065.989 535.018)" fill="#fff"/>
    <path id="Path_907" data-name="Path 907" d="M83.91,1170.306H82.132v1.443a.447.447,0,0,1-.445.445H79.859a.446.446,0,0,1-.444-.445v-1.443H70.538v1.443a.446.446,0,0,1-.445.445H68.264a.446.446,0,0,1-.445-.445v-1.443H66.041a2.231,2.231,0,0,0-2.224,2.224v11.659a2.231,2.231,0,0,0,2.224,2.224H83.91a2.231,2.231,0,0,0,2.224-2.224V1172.53A2.231,2.231,0,0,0,83.91,1170.306Zm.445,13.883a.45.45,0,0,1-.445.445H66.041a.451.451,0,0,1-.445-.445v-9.209H84.355Z" transform="translate(1069.012 533.587)" fill="#fff"/>
    <rect id="Rectangle_542" data-name="Rectangle 542" width="2.366" height="2.254" rx="0.781" transform="translate(1136.77 1710.266)" fill="#fff"/>
    <rect id="Rectangle_543" data-name="Rectangle 543" width="2.366" height="2.254" rx="0.781" transform="translate(1140.793 1710.266)" fill="#fff"/>
    <rect id="Rectangle_544" data-name="Rectangle 544" width="2.366" height="2.254" rx="0.781" transform="translate(1144.816 1710.266)" fill="#fff"/>
    <rect id="Rectangle_545" data-name="Rectangle 545" width="2.366" height="2.254" rx="0.781" transform="translate(1148.839 1710.266)" fill="#fff"/>
    <rect id="Rectangle_546" data-name="Rectangle 546" width="2.366" height="2.254" rx="0.781" transform="translate(1136.77 1714.076)" fill="#fff"/>
    <rect id="Rectangle_547" data-name="Rectangle 547" width="2.366" height="2.254" rx="0.781" transform="translate(1140.793 1714.076)" fill="#fff"/>
    <rect id="Rectangle_548" data-name="Rectangle 548" width="2.366" height="2.254" rx="0.781" transform="translate(1144.816 1714.076)" fill="#fff"/>
    <rect id="Rectangle_549" data-name="Rectangle 549" width="2.366" height="2.254" rx="0.781" transform="translate(1148.839 1714.076)" fill="#fff"/>
  </g>
</svg>
