<?xml version="1.0" encoding="utf-8"?>
<!-- Generator: Adobe Illustrator 16.2.1, SVG Export Plug-In . SVG Version: 6.00 Build 0)  -->
<!DOCTYPE svg PUBLIC "-//W3C//DTD SVG 1.1//EN" "http://www.w3.org/Graphics/SVG/1.1/DTD/svg11.dtd">
<svg version="1.1" id="Layer_1" xmlns="http://www.w3.org/2000/svg" xmlns:xlink="http://www.w3.org/1999/xlink" x="0px" y="0px"
	 width="29px" height="29px" viewBox="0 0 29 29" style="enable-background:new 0 0 29 29;" xml:space="preserve">
<g>
	<path id="Blue_2_" style="fill:#3B5998;" d="M27.437,29c0.887,0,1.604-0.716,1.604-1.604V1.601C29.041,0.716,28.323,0,27.437,0
		H1.641C0.754,0,0.041,0.716,0.041,1.601v25.795C0.041,28.284,0.754,29,1.641,29H27.437z"/>
	<path id="f_1_" style="fill:#FFFFFF;" d="M20.048,29V17.771h3.773l0.564-4.38h-4.338v-2.793c0-1.266,0.354-2.128,2.17-2.128h2.318
		v-3.92c-0.397-0.05-1.774-0.171-3.378-0.171c-3.338,0-5.627,2.042-5.627,5.789v3.224H11.75v4.38h3.781V29H20.048z"/>
</g>
</svg>
