<?xml version="1.0" encoding="utf-8"?>
<!-- Generator: Adobe Illustrator 16.2.1, SVG Export Plug-In . SVG Version: 6.00 Build 0)  -->
<!DOCTYPE svg PUBLIC "-//W3C//DTD SVG 1.1//EN" "http://www.w3.org/Graphics/SVG/1.1/DTD/svg11.dtd">
<svg version="1.1" id="Layer_1" xmlns="http://www.w3.org/2000/svg" xmlns:xlink="http://www.w3.org/1999/xlink" x="0px" y="0px"
	 width="29px" height="29px" viewBox="0 0 29 29" style="enable-background:new 0 0 29 29;" xml:space="preserve">
<g>
	<polygon style="fill:none;" points="23.984,2.121 21.768,2.121 21.768,6.759 17.176,6.759 17.176,9.001 21.768,9.001 
		21.768,13.622 23.984,13.622 23.984,9.001 28.574,9.001 28.574,6.759 23.984,6.759 	"/>
	<path style="fill:#C02026;" d="M26.98,0h-5.213H14.5H7.127H2.016C0.905,0,0,0.914,0,2.045v2.204v0.53
		c0.125-0.139,0.255-0.275,0.396-0.414c1.245-1.03,2.531-1.704,3.871-2.02c1.325-0.271,2.571-0.407,3.726-0.407h8.74L14.035,3.53
		h-2.696c0.275,0.174,0.585,0.424,0.925,0.75c0.33,0.346,0.655,0.775,0.97,1.275c0.3,0.47,0.565,1.03,0.8,1.676
		c0.195,0.639,0.285,1.394,0.285,2.255c-0.025,1.581-0.37,2.845-1.03,3.79c-0.325,0.459-0.675,0.884-1.035,1.27
		c-0.405,0.389-0.835,0.78-1.291,1.179c-0.26,0.271-0.5,0.586-0.72,0.927c-0.26,0.358-0.395,0.77-0.395,1.244
		c0,0.46,0.14,0.844,0.405,1.149c0.225,0.285,0.445,0.535,0.66,0.755l1.48,1.222c0.925,0.76,1.73,1.599,2.426,2.515
		c0.655,0.935,0.995,2.159,1.02,3.658c0,0.627-0.08,1.223-0.24,1.806H26.98c1.115,0,2.02-0.914,2.02-2.04V4.249V2.045
		C29,0.914,28.096,0,26.98,0z M28.574,9.001h-4.59v4.621h-2.217V9.001h-4.592V6.759h4.592V2.121h2.217v4.638h4.59V9.001z"/>
	<path style="fill:#C02026;" d="M2.016,29h11.009c0-0.03,0-0.056,0-0.078c0-1.121-0.36-2.096-1.085-2.927
		c-0.76-0.79-1.961-1.76-3.586-2.911c-0.28-0.027-0.605-0.037-0.98-0.037c-0.225-0.03-0.795,0-1.71,0.083
		c-0.905,0.131-1.831,0.336-2.776,0.626c-0.225,0.083-0.535,0.215-0.94,0.384c-0.4,0.187-0.815,0.452-1.23,0.795
		C0.445,25.175,0.21,25.45,0,25.766v1.194C0,28.086,0.905,29,2.016,29z"/>
	<path style="fill:#C02026;" d="M7.163,21.84c-0.315-0.419-0.601-0.858-0.845-1.338c-0.285-0.452-0.43-1.016-0.43-1.667
		c0-0.389,0.055-0.715,0.165-0.97c0.095-0.274,0.18-0.53,0.265-0.76c-0.496,0.056-0.96,0.081-1.401,0.081
		C2.836,17.161,1.196,16.575,0,15.406v7.865c1.071-0.495,2.171-0.841,3.321-1.04C4.862,22.001,6.142,21.87,7.163,21.84z"/>
	<path style="fill:#C02026;" d="M10.619,11.526c0-1.74-0.44-3.487-1.326-5.257C8.888,5.411,8.338,4.724,7.667,4.196
		c-0.69-0.502-1.48-0.77-2.375-0.795C4.106,3.426,3.121,3.906,2.336,4.84c-0.66,0.985-0.975,2.071-0.945,3.275
		c0,1.606,0.46,3.26,1.38,4.981c0.45,0.808,1.03,1.484,1.736,2.055c0.71,0.558,1.515,0.838,2.425,0.838
		c1.15-0.04,2.111-0.459,2.876-1.25c0.375-0.561,0.61-1.139,0.715-1.724C10.588,12.425,10.619,11.93,10.619,11.526z"/>
	<path style="fill:#FFFFFF;" d="M0,25.766c0.21-0.315,0.445-0.591,0.715-0.831c0.415-0.343,0.831-0.608,1.23-0.795
		c0.405-0.169,0.715-0.301,0.94-0.384c0.945-0.29,1.871-0.495,2.776-0.626c0.915-0.083,1.485-0.113,1.71-0.083
		c0.375,0,0.7,0.01,0.98,0.037c1.625,1.151,2.826,2.121,3.586,2.911c0.725,0.831,1.085,1.806,1.085,2.927c0,0.022,0,0.048,0,0.078
		H15.6c0.16-0.583,0.24-1.179,0.24-1.806c-0.025-1.499-0.365-2.724-1.02-3.658c-0.695-0.916-1.5-1.755-2.426-2.515l-1.48-1.222
		c-0.215-0.22-0.435-0.47-0.66-0.755c-0.265-0.306-0.405-0.689-0.405-1.149c0-0.475,0.135-0.886,0.395-1.244
		c0.22-0.341,0.46-0.656,0.72-0.927c0.455-0.399,0.885-0.791,1.291-1.179c0.36-0.386,0.71-0.811,1.035-1.27
		c0.66-0.944,1.005-2.209,1.03-3.79c0-0.861-0.09-1.616-0.285-2.255c-0.235-0.646-0.5-1.207-0.8-1.676
		c-0.315-0.5-0.64-0.929-0.97-1.275c-0.34-0.326-0.65-0.576-0.925-0.75h2.696l2.698-1.591h-8.74c-1.155,0-2.401,0.136-3.726,0.407
		c-1.34,0.315-2.626,0.99-3.871,2.02C0.255,4.504,0.125,4.641,0,4.779v10.627c1.196,1.169,2.836,1.755,4.917,1.78
		c0.44,0,0.905-0.025,1.401-0.081c-0.085,0.229-0.17,0.485-0.265,0.76c-0.11,0.255-0.165,0.581-0.165,0.97
		c0,0.651,0.145,1.215,0.43,1.667c0.245,0.479,0.53,0.919,0.845,1.338c-1.021,0.03-2.301,0.161-3.841,0.392
		c-1.15,0.199-2.25,0.545-3.321,1.04 M6.932,15.989c-0.91,0-1.715-0.28-2.425-0.838c-0.706-0.571-1.286-1.247-1.736-2.055
		c-0.92-1.722-1.38-3.375-1.38-4.981c-0.03-1.204,0.285-2.29,0.945-3.275c0.785-0.934,1.771-1.414,2.956-1.439
		c0.895,0.025,1.686,0.293,2.375,0.795c0.67,0.528,1.22,1.214,1.625,2.073c0.885,1.77,1.326,3.517,1.326,5.257
		c0,0.404-0.03,0.899-0.095,1.49c-0.105,0.585-0.34,1.164-0.715,1.724C9.043,15.53,8.083,15.949,6.932,15.989z"/>
</g>
</svg>
