<?xml version="1.0" encoding="utf-8"?>
<!-- Generator: Adobe Illustrator 23.1.1, SVG Export Plug-In . SVG Version: 6.00 Build 0)  -->
<svg version="1.1" id="Logo" xmlns="http://www.w3.org/2000/svg" xmlns:xlink="http://www.w3.org/1999/xlink" x="0px" y="0px"
	 viewBox="0 0 127.1 129.9" style="enable-background:new 0 0 127.1 129.9;" xml:space="preserve">
<style type="text/css">
	.st0{fill:#FFFFFF;}
</style>
<g>
	<path class="st0" d="M63.5,16.1c16.1,0,18.1,0.1,24.4,0.4c5.9,0.3,9.1,1.3,11.2,2.1c2.8,1.1,4.8,2.4,7,4.5c2.1,2.1,3.4,4.1,4.5,7
		c0.8,2.1,1.8,5.3,2.1,11.2c0.3,6.4,0.4,8.3,0.4,24.4s-0.1,18.1-0.4,24.4c-0.3,5.9-1.3,9.1-2.1,11.2c-1.1,2.8-2.4,4.8-4.5,7
		c-2.1,2.1-4.1,3.4-7,4.5c-2.1,0.8-5.3,1.8-11.2,2.1c-6.4,0.3-8.3,0.4-24.4,0.4s-18.1-0.1-24.4-0.4c-5.9-0.3-9.1-1.3-11.2-2.1
		c-2.8-1.1-4.8-2.4-7-4.5c-2.1-2.1-3.4-4.1-4.5-7c-0.8-2.1-1.8-5.3-2.1-11.2c-0.3-6.4-0.4-8.3-0.4-24.4s0.1-18.1,0.4-24.4
		c0.3-5.9,1.3-9.1,2.1-11.2c1.1-2.8,2.4-4.8,4.5-7c2.1-2.1,4.1-3.4,7-4.5c2.1-0.8,5.3-1.8,11.2-2.1C45.4,16.2,47.3,16.1,63.5,16.1
		 M63.5,5.2C47,5.2,45,5.3,38.5,5.6c-6.4,0.3-10.8,1.3-14.7,2.8c-4,1.5-7.3,3.6-10.7,7c-3.4,3.4-5.4,6.7-7,10.7
		c-1.5,3.8-2.5,8.2-2.8,14.7C3.1,47.2,3,49.3,3,65.7s0.1,18.5,0.4,24.9c0.3,6.4,1.3,10.8,2.8,14.7c1.5,4,3.6,7.3,7,10.7
		c3.4,3.4,6.7,5.4,10.7,7c3.8,1.5,8.2,2.5,14.7,2.8c6.4,0.3,8.5,0.4,24.9,0.4s18.5-0.1,24.9-0.4c6.4-0.3,10.8-1.3,14.7-2.8
		c4-1.5,7.3-3.6,10.7-7c3.4-3.4,5.4-6.7,7-10.7c1.5-3.8,2.5-8.2,2.8-14.7c0.3-6.4,0.4-8.5,0.4-24.9s-0.1-18.5-0.4-24.9
		c-0.3-6.4-1.3-10.8-2.8-14.7c-1.5-4-3.6-7.3-7-10.7c-3.4-3.4-6.7-5.4-10.7-7c-3.8-1.5-8.2-2.5-14.7-2.8C81.9,5.3,79.9,5.2,63.5,5.2
		L63.5,5.2z"/>
	<path class="st0" d="M63.5,34.7c-17.1,0-31,13.9-31,31s13.9,31,31,31s31-13.9,31-31S80.6,34.7,63.5,34.7z M63.5,85.9
		c-11.1,0-20.2-9-20.2-20.2s9-20.2,20.2-20.2c11.1,0,20.2,9,20.2,20.2S74.6,85.9,63.5,85.9z"/>
	<circle class="st0" cx="95.7" cy="33.4" r="7.3"/>
</g>
</svg>
