<?xml version="1.0" encoding="utf-8"?>
<!-- Generator: Adobe Illustrator 16.2.1, SVG Export Plug-In . SVG Version: 6.00 Build 0)  -->
<!DOCTYPE svg PUBLIC "-//W3C//DTD SVG 1.1//EN" "http://www.w3.org/Graphics/SVG/1.1/DTD/svg11.dtd">
<svg version="1.1" id="Layer_1" xmlns="http://www.w3.org/2000/svg" xmlns:xlink="http://www.w3.org/1999/xlink" x="0px" y="0px"
	 width="29px" height="29px" viewBox="-2 -2 29 29" style="enable-background:new -2 -2 29 29;" xml:space="preserve">
<g>
	<g>
		<g>
			<path style="fill:#007BB5;" d="M24.853-2.07H0.146c-1.183,0-2.142,0.937-2.142,2.09v24.817c0,1.156,0.958,2.093,2.142,2.093
				h24.706c1.186,0,2.152-0.937,2.152-2.093V0.02C27.005-1.134,26.038-2.07,24.853-2.07z"/>
			<path style="fill:#FFFFFF;" d="M2.304,8.803h4.302v13.84H2.304V8.803z M4.45,1.922c1.381,0,2.499,1.118,2.499,2.494
				c0,1.375-1.117,2.493-2.499,2.493c-1.374,0-2.491-1.118-2.491-2.493C1.959,3.041,3.077,1.922,4.45,1.922"/>
			<path style="fill:#FFFFFF;" d="M9.303,8.803h4.128v1.889h0.058c0.57-1.086,1.979-2.233,4.067-2.233
				c4.354,0,5.16,2.864,5.16,6.596v7.589h-4.298v-6.73c0-1.605-0.034-3.67-2.237-3.67c-2.237,0-2.578,1.747-2.578,3.555v6.846h-4.3
				V8.803z"/>
		</g>
	</g>
</g>
</svg>
