<svg xmlns="http://www.w3.org/2000/svg" width="24.69" height="24.691" viewBox="0 0 24.69 24.691">
  <defs>
    <style>
      .cls-1 {
        fill: #fcfdfe;
      }
    </style>
  </defs>
  <path id="Path_897" data-name="Path 897" class="cls-1" d="M-734.23,244h-21.043a1.8,1.8,0,0,0-1.821,1.78v21.129a1.8,1.8,0,0,0,1.821,1.782h21.043a1.806,1.806,0,0,0,1.827-1.782V245.78A1.805,1.805,0,0,0-734.23,244Zm-15.54,21.039h-3.666V253.257h3.666Zm-1.832-13.393a2.123,2.123,0,0,1-2.125-2.124A2.123,2.123,0,0,1-751.6,247.4a2.124,2.124,0,0,1,2.122,2.124A2.124,2.124,0,0,1-751.6,251.647Zm15.548,13.393h-3.662v-5.73c0-1.366-.023-3.124-1.9-3.124-1.905,0-2.2,1.489-2.2,3.026v5.828h-3.658V253.257h3.51v1.611h.05a3.847,3.847,0,0,1,3.465-1.9c3.708,0,4.393,2.44,4.393,5.613Z" transform="translate(757.094 -244)"/>
</svg>
