<svg xmlns="http://www.w3.org/2000/svg" width="25.004" height="18" viewBox="0 0 25.004 18">
  <g id="Group_2222" data-name="Group 2222" transform="translate(-966 -1702)">
    <path id="Path_900" data-name="Path 900" d="M34.944,1120.9l1.518,2.645h.78v-3.728h-.726v2.6l-1.48-2.6h-.817v3.728h.726Z" transform="translate(938.35 585.407)" fill="#fff"/>
    <path id="Path_901" data-name="Path 901" d="M51.583,1122.874H49.52v-.958h1.811v-.647H49.52v-.793h1.973v-.66H48.759v3.728h2.825Z" transform="translate(927.741 585.407)" fill="#fff"/>
    <path id="Path_902" data-name="Path 902" d="M63.134,1121.365l.131-.722.131.722.45,2.179h.746l1.049-3.728h-.793l-.5,2.158-.115.571-.114-.595-.443-2.135h-.822l-.421,2.147-.107.583-.107-.595-.492-2.135H60.9l1.057,3.728h.724Z" transform="translate(918.846 585.407)" fill="#fff"/>
    <path id="Path_903" data-name="Path 903" d="M81.951,1122.663a1.432,1.432,0,0,1-.457.061.829.829,0,0,1-.663-.23.755.755,0,0,1-.142-.382h-.744a1.1,1.1,0,0,0,.422.915,1.825,1.825,0,0,0,1.158.332,1.666,1.666,0,0,0,1.115-.337,1.07,1.07,0,0,0,.4-.849.912.912,0,0,0-.333-.761,1.659,1.659,0,0,0-.644-.271l-.655-.154a2.338,2.338,0,0,1-.5-.155.319.319,0,0,1-.181-.3.384.384,0,0,1,.184-.339.884.884,0,0,1,.492-.121,1.021,1.021,0,0,1,.464.094.534.534,0,0,1,.3.478h.749a1.11,1.11,0,0,0-.442-.907,1.66,1.66,0,0,0-1.018-.312,1.573,1.573,0,0,0-1.083.331,1.072,1.072,0,0,0-.369.833.909.909,0,0,0,.376.806,2.518,2.518,0,0,0,.818.286l.4.089a1.735,1.735,0,0,1,.517.175.318.318,0,0,1,.164.286A.434.434,0,0,1,81.951,1122.663Z" transform="translate(904.898 585.69)" fill="#fff"/>
    <rect id="Rectangle_539" data-name="Rectangle 539" width="7.655" height="1.427" transform="translate(972.331 1710.447)" fill="#fff"/>
    <rect id="Rectangle_540" data-name="Rectangle 540" width="7.655" height="1.429" transform="translate(972.331 1712.924)" fill="#fff"/>
    <rect id="Rectangle_541" data-name="Rectangle 541" width="7.655" height="1.43" transform="translate(972.331 1715.257)" fill="#fff"/>
    <path id="Path_904" data-name="Path 904" d="M34.058,1107.857H13.94a.859.859,0,0,0-.859.859v1.93H10.773a.859.859,0,0,0-.859.859v11.91a2.445,2.445,0,0,0,2.443,2.442H32.475a2.445,2.445,0,0,0,2.442-2.442v-14.7A.859.859,0,0,0,34.058,1107.857Zm-22.425,15.558v-11.05h1.448v11.05a.724.724,0,0,1-1.448,0Zm20.842.723H14.69c.015-.05.024-.1.035-.155s.021-.082.03-.125a2.484,2.484,0,0,0,.044-.443v-13.839H33.2v6.745H25.254v6.215H33.2v.878A.725.725,0,0,1,32.475,1124.138Z" transform="translate(956.086 594.143)" fill="#fff"/>
  </g>
</svg>
