<?xml version="1.0" encoding="utf-8"?>
<!-- Generator: Adobe Illustrator 16.2.1, SVG Export Plug-In . SVG Version: 6.00 Build 0)  -->
<!DOCTYPE svg PUBLIC "-//W3C//DTD SVG 1.1//EN" "http://www.w3.org/Graphics/SVG/1.1/DTD/svg11.dtd">
<svg version="1.1" id="Layer_1" xmlns="http://www.w3.org/2000/svg" xmlns:xlink="http://www.w3.org/1999/xlink" x="0px" y="0px"
	 width="29px" height="29px" viewBox="-2 -2 29 29" style="enable-background:new -2 -2 29 29;" xml:space="preserve">
<g>
	<path style="fill:#CB2128;" d="M12.516-2.015c-8.006,0-14.501,6.494-14.501,14.5c0,5.939,3.569,11.04,8.679,13.281
		c-0.04-1.013-0.004-2.227,0.256-3.331c0.275-1.174,1.866-7.9,1.866-7.9S8.35,13.612,8.35,12.242c0-2.149,1.247-3.753,2.796-3.753
		c1.32,0,1.958,0.991,1.958,2.175c0,1.327-0.845,3.313-1.28,5.152c-0.365,1.535,0.77,2.79,2.286,2.79
		c2.75,0,4.601-3.526,4.601-7.709c0-3.18-2.143-5.561-6.037-5.561c-4.395,0-7.139,3.283-7.139,6.948
		c0,1.259,0.375,2.152,0.957,2.841c0.271,0.317,0.304,0.445,0.208,0.811c-0.065,0.267-0.229,0.908-0.298,1.162
		c-0.093,0.369-0.391,0.502-0.725,0.365c-2.026-0.831-2.966-3.048-2.966-5.542c0-4.118,3.475-9.06,10.361-9.06
		c5.535,0,9.182,4.007,9.182,8.308c0,5.688-3.166,9.942-7.83,9.942c-1.563,0-3.033-0.848-3.538-1.81c0,0-0.844,3.34-1.018,3.98
		c-0.307,1.121-0.909,2.237-1.459,3.108c1.302,0.389,2.681,0.595,4.108,0.595c8.008,0,14.499-6.489,14.499-14.5
		C27.015,4.479,20.524-2.015,12.516-2.015z"/>
</g>
</svg>
