<?xml version="1.0" encoding="utf-8"?>
<!-- Generator: Adobe Illustrator 16.2.1, SVG Export Plug-In . SVG Version: 6.00 Build 0)  -->
<!DOCTYPE svg PUBLIC "-//W3C//DTD SVG 1.1//EN" "http://www.w3.org/Graphics/SVG/1.1/DTD/svg11.dtd">
<svg version="1.1" id="Layer_1" xmlns="http://www.w3.org/2000/svg" xmlns:xlink="http://www.w3.org/1999/xlink" x="0px" y="0px"
	 width="29px" height="29px" viewBox="0 0 29 29" style="enable-background:new 0 0 29 29;" xml:space="preserve">
<path style="fill:#732282;" d="M28.994,8.19c0-0.474-0.381-0.86-0.852-0.86h-3.127V3.548c0-1.131-0.912-2.048-2.034-2.048H6.004
	c-1.119,0-2.029,0.917-2.029,2.048V7.33H0.847c-0.471,0-0.853,0.386-0.853,0.86v13.593c0,0.475,0.382,0.859,0.853,0.859h1.99v-3.701
	c0-1.833,1.479-3.327,3.301-3.327h16.713c1.82,0,3.301,1.494,3.301,3.327v3.701h1.99c0.471,0,0.852-0.385,0.852-0.859V8.19z
	 M6.249,3.793h16.49V7.33H6.249V3.793z"/>
<path style="fill:#732282;" d="M23.877,18.941c0-0.571-0.459-1.031-1.025-1.031H6.138c-0.569,0-1.027,0.46-1.027,1.031v7.529
	c0,0.569,0.458,1.029,1.027,1.029h16.713c0.566,0,1.025-0.46,1.025-1.029V18.941z"/>
<path style="fill:#FFFFFF;" d="M3.117,10.039c-0.646,0-1.17,0.527-1.17,1.177c0,0.654,0.524,1.183,1.17,1.183
	c0.647,0,1.169-0.528,1.169-1.183C4.286,10.566,3.764,10.039,3.117,10.039"/>
</svg>
