<?xml version="1.0" encoding="utf-8"?>
<!-- Generator: Adobe Illustrator 16.2.1, SVG Export Plug-In . SVG Version: 6.00 Build 0)  -->
<!DOCTYPE svg PUBLIC "-//W3C//DTD SVG 1.1//EN" "http://www.w3.org/Graphics/SVG/1.1/DTD/svg11.dtd">
<svg version="1.1" id="Layer_1" xmlns="http://www.w3.org/2000/svg" xmlns:xlink="http://www.w3.org/1999/xlink" x="0px" y="0px"
	 width="29px" height="29px" viewBox="-2 -2 29 29" style="enable-background:new -2 -2 29 29;" xml:space="preserve">
<g>
	<g>
		<linearGradient id="SVGID_1_" gradientUnits="userSpaceOnUse" x1="12.5283" y1="-1.625" x2="12.5283" y2="26.495">
			<stop  offset="0" style="stop-color:#D4E7F7"/>
			<stop  offset="1" style="stop-color:#A4D0EE"/>
		</linearGradient>
		<path style="fill:url(#SVGID_1_);" d="M2.86,26.773c-2.538,0-4.604-2.065-4.604-4.609V2.833c0-2.54,2.066-4.606,4.604-4.606
			h19.335c2.538,0,4.606,2.067,4.606,4.606v19.331c0,2.544-2.068,4.609-4.606,4.609H2.86z"/>
		<g>
			<path style="fill:#96B9CF;" d="M22.195-1.547c2.416,0,4.379,1.966,4.379,4.38v19.331c0,2.412-1.963,4.383-4.379,4.383H2.86
				c-2.413,0-4.379-1.971-4.379-4.383V2.833c0-2.414,1.966-4.38,4.379-4.38H22.195 M22.195-2H2.86C0.204-2-1.972,0.176-1.972,2.833
				v19.331C-1.972,24.827,0.204,27,2.86,27h19.335c2.66,0,4.833-2.173,4.833-4.836V2.833C27.028,0.176,24.855-2,22.195-2L22.195-2z"
				/>
		</g>
	</g>
	<g style="opacity:0.6;">
		<g>
			<linearGradient id="SVGID_2_" gradientUnits="userSpaceOnUse" x1="12.5303" y1="25.415" x2="12.5303" y2="10.9145">
				<stop  offset="0" style="stop-color:#FFFFFF"/>
				<stop  offset="1" style="stop-color:#000000"/>
			</linearGradient>
			<path style="fill:url(#SVGID_2_);" d="M22.195-0.188H2.86c-1.663,0-3.018,1.357-3.018,3.021v19.334
				c0,1.663,1.355,3.021,3.018,3.021h19.335c1.663,0,3.022-1.358,3.022-3.021V2.833C25.218,1.169,23.858-0.188,22.195-0.188z
				 M23.403,22.167c0,0.667-0.54,1.211-1.208,1.211H2.86c-0.663,0-1.207-0.544-1.207-1.211V2.833c0-0.666,0.544-1.208,1.207-1.208
				h19.335c0.668,0,1.208,0.542,1.208,1.208V22.167z"/>
		</g>
	</g>
	<g>
		<g>
			<path style="fill:#4E4E4E;" d="M12.575,13.923c-0.032,0-0.067-0.005-0.104-0.011c-0.387-0.057-0.65-0.42-0.591-0.807l1.11-7.208
				c0.03-0.193,0.137-0.365,0.298-0.476c0.158-0.112,0.355-0.153,0.553-0.106l9.049,2.012c0.379,0.081,0.616,0.461,0.534,0.842
				c-0.083,0.379-0.438,0.631-0.843,0.535l-8.314-1.849l-0.991,6.468C13.225,13.67,12.924,13.923,12.575,13.923L12.575,13.923z"/>
		</g>
		<g>
			<path style="fill:#FFFFFF;" d="M0.548,14.392c-0.778,0-1.489,0.255-2.067,0.666v5.195c0.578,0.414,1.289,0.67,2.067,0.67
				c1.899,0,3.441-1.467,3.441-3.272C3.989,15.852,2.447,14.392,0.548,14.392z"/>
			<path style="fill:#4E4E4E;" d="M0.548,13.684c-0.758,0-1.454,0.208-2.067,0.548v1.761c0.501-0.543,1.236-0.896,2.067-0.896
				c1.505,0,2.732,1.146,2.732,2.554c0,1.417-1.227,2.563-2.732,2.563c-0.831,0-1.565-0.353-2.067-0.898v1.766
				c0.613,0.338,1.309,0.546,2.067,0.546c2.286,0,4.146-1.783,4.146-3.977C4.694,15.467,2.833,13.684,0.548,13.684z"/>
		</g>
		<g>
			<path style="fill:#FFFFFF;" d="M26.574,14.732c-0.454-0.216-0.957-0.341-1.499-0.341c-1.897,0-3.438,1.46-3.438,3.259
				c0,1.806,1.54,3.272,3.438,3.272c0.542,0,1.045-0.129,1.499-0.341V14.732z"/>
			<path style="fill:#4E4E4E;" d="M20.93,17.65c0,2.193,1.859,3.977,4.146,3.977c0.53,0,1.036-0.102,1.499-0.273v-1.559
				c-0.431,0.264-0.942,0.419-1.499,0.419c-1.506,0-2.736-1.146-2.736-2.563c0-1.407,1.23-2.554,2.736-2.554
				c0.557,0,1.068,0.156,1.499,0.424v-1.56c-0.463-0.175-0.969-0.277-1.499-0.277C22.789,13.684,20.93,15.467,20.93,17.65z"/>
			<path style="fill:#FFFFFF;" d="M12.575,13.185c-7.505,0-13.585,4.17-13.585,9.317c0,0.822,0.17,1.62,0.466,2.38
				c0.799,1.01,2.019,1.665,3.404,1.665h19.335c1.482,0,2.787-0.743,3.58-1.876c0.241-0.697,0.385-1.419,0.385-2.169
				C26.16,17.354,20.082,13.185,12.575,13.185z"/>
			<path style="fill:#4E4E4E;" d="M26.574,22.164v-1.685c-1.336-4.561-7.104-7.997-13.999-7.997c-7.103,0-13.002,3.659-14.094,8.426
				v1.256c0,1.685,0.962,3.131,2.359,3.862c-0.729-1.075-1.142-2.266-1.142-3.524c0-4.745,5.776-8.61,12.877-8.61
				c7.107,0,12.884,3.865,12.884,8.61c0,1.223-0.392,2.384-1.083,3.442C25.681,25.184,26.574,23.783,26.574,22.164z"/>
		</g>
		<g>
			<g>
				<path style="fill:#EF4B23;" d="M9.45,20.123c0,1.021-0.83,1.854-1.853,1.854c-1.018,0-1.851-0.833-1.851-1.854
					c0-1.022,0.833-1.846,1.851-1.846C8.62,18.277,9.45,19.101,9.45,20.123z"/>
			</g>
			<g>
				<path style="fill:#EF4B23;" d="M19.806,20.123c0,1.021-0.832,1.854-1.849,1.854c-1.03,0-1.855-0.833-1.855-1.854
					c0-1.022,0.825-1.846,1.855-1.846C18.974,18.277,19.806,19.101,19.806,20.123z"/>
			</g>
		</g>
		<g>
			<path style="fill:#FFFFFF;" d="M24.285,7.906c0,1.706-1.385,3.091-3.089,3.091c-1.7,0-3.088-1.385-3.088-3.091
				c0-1.707,1.388-3.087,3.088-3.087C22.9,4.819,24.285,6.199,24.285,7.906z"/>
			<path style="fill:#4E4E4E;" d="M21.196,11.702c-2.095,0-3.792-1.704-3.792-3.796c0-2.092,1.697-3.793,3.792-3.793
				c2.093,0,3.794,1.701,3.794,3.793C24.99,9.999,23.289,11.702,21.196,11.702L21.196,11.702z M21.196,5.524
				c-1.312,0-2.382,1.069-2.382,2.382c0,1.313,1.07,2.384,2.382,2.384c1.312,0,2.381-1.071,2.381-2.384
				C23.577,6.593,22.509,5.524,21.196,5.524L21.196,5.524z"/>
		</g>
	</g>
	<g>
		<g>
			<linearGradient id="SVGID_3_" gradientUnits="userSpaceOnUse" x1="12.5278" y1="-1.8491" x2="12.5278" y2="26.7172">
				<stop  offset="0" style="stop-color:#DFE3E5"/>
				<stop  offset="1" style="stop-color:#BDC6CB"/>
			</linearGradient>
			<path style="fill:url(#SVGID_3_);" d="M22.195-2H2.86C0.204-2-1.972,0.176-1.972,2.833v19.334c0,2.66,2.176,4.833,4.832,4.833
				h19.335c2.66,0,4.833-2.173,4.833-4.833V2.833C27.028,0.176,24.855-2,22.195-2z M25.218,22.167c0,1.663-1.359,3.021-3.022,3.021
				H2.86c-1.663,0-3.018-1.358-3.018-3.021V2.833c0-1.664,1.355-3.021,3.018-3.021h19.335c1.663,0,3.022,1.357,3.022,3.021V22.167z"
				/>
		</g>
	</g>
	<g style="opacity:0.8;">
		<linearGradient id="SVGID_4_" gradientUnits="userSpaceOnUse" x1="12.5298" y1="-0.1626" x2="12.5298" y2="4.6024">
			<stop  offset="0" style="stop-color:#FFFFFF"/>
			<stop  offset="1" style="stop-color:#000000"/>
		</linearGradient>
		<path style="fill:url(#SVGID_4_);" d="M22.195-0.188H2.86c-1.663,0-3.018,1.357-3.018,3.021v1.816
			c0-1.666,1.355-3.023,3.018-3.023h19.335c1.663,0,3.022,1.357,3.022,3.023V2.833C25.218,1.169,23.858-0.188,22.195-0.188z"/>
	</g>
</g>
</svg>
