<?xml version="1.0" encoding="utf-8"?>
<!-- Generator: Adobe Illustrator 16.2.1, SVG Export Plug-In . SVG Version: 6.00 Build 0)  -->
<!DOCTYPE svg PUBLIC "-//W3C//DTD SVG 1.1//EN" "http://www.w3.org/Graphics/SVG/1.1/DTD/svg11.dtd">
<svg version="1.1" id="Layer_1" xmlns="http://www.w3.org/2000/svg" xmlns:xlink="http://www.w3.org/1999/xlink" x="0px" y="0px"
	 width="29px" height="29px" viewBox="0 0 29 29" style="enable-background:new 0 0 29 29;" xml:space="preserve">
<path style="fill:#F2AF00;" d="M0.085,22.548c0,2.841,2.312,5.151,5.15,5.151H19.22c2.84,0,5.15-2.311,5.15-5.151V12.93
	l-1.128,0.792c-0.297,0.206-0.609,0.352-0.932,0.448v8.378c0,1.703-1.389,3.092-3.091,3.092H5.235c-1.704,0-3.09-1.389-3.09-3.092
	V8.564c0-1.704,1.387-3.091,3.09-3.091h7.982c0.753-0.748,1.617-1.45,2.626-2.06H5.235c-2.839,0-5.15,2.31-5.15,5.15V22.548z"/>
<path style="fill:#F2AF00;" d="M10.582,14.771c4.227-4.567,7.904-5.591,10.382-5.589v2.284c0,0.741,0.491,0.994,1.096,0.571
	l6.398-4.493c0.609-0.425,0.609-1.113,0-1.539L22.06,1.513c-0.604-0.423-1.096-0.167-1.096,0.571v1.515
	C11.997,5.488,10.582,14.771,10.582,14.771"/>
</svg>
