<?xml version="1.0" encoding="utf-8"?>
<!-- Generator: Adobe Illustrator 16.2.1, SVG Export Plug-In . SVG Version: 6.00 Build 0)  -->
<!DOCTYPE svg PUBLIC "-//W3C//DTD SVG 1.1//EN" "http://www.w3.org/Graphics/SVG/1.1/DTD/svg11.dtd">
<svg version="1.1" id="Layer_1" xmlns="http://www.w3.org/2000/svg" xmlns:xlink="http://www.w3.org/1999/xlink" x="0px" y="0px"
	 width="29px" height="29px" viewBox="0 0 29 29" style="enable-background:new 0 0 29 29;" xml:space="preserve">
<g>
	<g>
		<defs>
			<rect id="SVGID_1_" width="29" height="29"/>
		</defs>
		<clipPath id="SVGID_2_">
			<use xlink:href="#SVGID_1_"  style="overflow:visible;"/>
		</clipPath>
		<rect style="clip-path:url(#SVGID_2_);fill:#2CA9E1;" width="29" height="29"/>
	</g>
	<path style="fill:#FFFFFF;" d="M24.166,8.506c-0.711,0.315-1.475,0.528-2.281,0.625c0.82-0.492,1.451-1.27,1.746-2.195
		c-0.766,0.453-1.615,0.785-2.52,0.963c-0.721-0.77-1.75-1.253-2.896-1.253c-2.188,0-3.963,1.775-3.963,3.968
		c0,0.31,0.035,0.613,0.103,0.903c-3.295-0.165-6.22-1.746-8.177-4.144c-0.34,0.585-0.535,1.266-0.535,1.993
		c0,1.375,0.7,2.59,1.765,3.3c-0.65-0.02-1.262-0.197-1.797-0.495c0,0.015,0,0.033,0,0.05c0,1.92,1.368,3.526,3.183,3.89
		C8.46,16.203,8.11,16.25,7.745,16.25c-0.253,0-0.503-0.022-0.745-0.069c0.505,1.575,1.97,2.723,3.705,2.753
		c-1.357,1.064-3.067,1.7-4.925,1.7c-0.32,0-0.637-0.021-0.947-0.058c1.755,1.128,3.84,1.785,6.082,1.785
		c7.296,0,11.287-6.046,11.287-11.29c0-0.17-0.006-0.342-0.016-0.513C22.961,9.999,23.635,9.302,24.166,8.506"/>
</g>
</svg>
