<svg xmlns="http://www.w3.org/2000/svg" width="30.407" height="24.712" viewBox="0 0 30.407 24.712">
  <defs>
    <style>
      .cls-1 {
        fill: #fff;
      }
    </style>
  </defs>
  <path id="Path_896" data-name="Path 896" class="cls-1" d="M84.563,123.123c11.475,0,17.75-9.506,17.75-17.75,0-.27-.005-.539-.018-.807a12.694,12.694,0,0,0,3.112-3.23,12.453,12.453,0,0,1-3.583.982,6.259,6.259,0,0,0,2.743-3.451,12.5,12.5,0,0,1-3.961,1.514,6.244,6.244,0,0,0-10.631,5.689,17.711,17.711,0,0,1-12.859-6.518,6.244,6.244,0,0,0,1.931,8.328,6.192,6.192,0,0,1-2.825-.78c0,.026,0,.052,0,.08a6.241,6.241,0,0,0,5,6.116,6.229,6.229,0,0,1-2.817.107,6.246,6.246,0,0,0,5.828,4.333,12.519,12.519,0,0,1-7.748,2.67A12.689,12.689,0,0,1,75,120.321a17.661,17.661,0,0,0,9.563,2.8" transform="translate(-75 -98.411)"/>
</svg>
