<svg xmlns="http://www.w3.org/2000/svg" viewBox="0 0 24.67 33.5"><defs><style>.cls-1{fill:none;stroke:#808285;stroke-linecap:round;stroke-linejoin:round;stroke-width:1.5px;}.cls-2{fill:#808285;}</style></defs><title>datasheet_grey</title><g id="Layer_2" data-name="Layer 2"><g id="TOP_Data_Drop3Hover"><polyline class="cls-1" points="18.4 0.75 18.4 6.27 23.92 6.27"/><path class="cls-1" d="M23.92,31.65a1.1,1.1,0,0,1-1.09,1.1h-21a1.09,1.09,0,0,1-1.09-1.1V1.86A1.1,1.1,0,0,1,1.84.75H18.4a.8.8,0,0,1,.62.32l4.57,4.52a.88.88,0,0,1,.33.68Z"/><path class="cls-2" d="M6.33,26.75h0a1,1,0,0,1-.62-.21A1.53,1.53,0,0,1,5,25.12c.12-1,1.4-2.12,3.81-3.23a42.1,42.1,0,0,0,2.41-6.83c-.64-1.38-1.25-3.18-.8-4.23a1.18,1.18,0,0,1,.72-.77,3,3,0,0,1,.64-.11c.32,0,.61.41.81.67s.61.74-.24,4.32a20.42,20.42,0,0,0,3.23,4.81,12.63,12.63,0,0,1,2.14-.23c1,0,1.6.24,1.85.71a1.3,1.3,0,0,1-.25,1.38,1.72,1.72,0,0,1-1.41.76,4.2,4.2,0,0,1-2.68-1.46,30.39,30.39,0,0,0-5.62,1.8,18.9,18.9,0,0,1-1.51,2.7C7.45,26.32,6.88,26.75,6.33,26.75ZM8,23.49c-1.36.76-1.91,1.39-1.95,1.75,0,.05,0,.21.27.44C6.44,25.65,7,25.39,8,23.49Zm8.67-2.82c.52.39.65.6,1,.6a1,1,0,0,0,.77-.28,1,1,0,0,0,.14-.27c-.08,0-.18-.12-.74-.12A8.33,8.33,0,0,0,16.69,20.67Zm-4.75-4.19a43.73,43.73,0,0,1-1.7,4.81A30.21,30.21,0,0,1,14.37,20,22.37,22.37,0,0,1,11.94,16.48Zm-.38-5.38a1.51,1.51,0,0,0,.06,2C12.22,11.8,11.58,11.09,11.56,11.1Z"/></g></g></svg>