<svg xmlns="http://www.w3.org/2000/svg" viewBox="0 0 22.49 28.98"><title>PDF_Icon</title><g id="Layer_2" data-name="Layer 2"><g id="EVAL_POPOver"><path d="M.5,20H22a0,0,0,0,1,0,0v7.36a1.14,1.14,0,0,1-1.14,1.14H1.64A1.14,1.14,0,0,1,.5,27.35V20A0,0,0,0,1,.5,20Z" style="fill:none;stroke:#808285;stroke-miterlimit:10;stroke-width:1.00002395934886px"/><path d="M15.73.5H1.23C.83.5.5.83.5,1.46V28a.75.75,0,0,0,.73.5h20A.75.75,0,0,0,22,28V7c0-.35,0-.46-.13-.54L16,.63A.44.44,0,0,0,15.73.5Z" style="fill:none;stroke:#808285;stroke-miterlimit:10;stroke-width:1.00002395934886px"/><path d="M16,1.2V6.5h5.3a.26.26,0,0,0,.18-.44l-5-5A.26.26,0,0,0,16,1.2Z" style="fill:none;stroke:#808285;stroke-miterlimit:10;stroke-width:1.00002395934886px"/><path d="M7,17.15H7A.8.8,0,0,1,6.52,17,1.2,1.2,0,0,1,6,15.87c.09-.81,1.1-1.67,3-2.53A33.56,33.56,0,0,0,10.85,8c-.5-1.09-1-2.49-.63-3.32A1,1,0,0,1,10.78,4,2.45,2.45,0,0,1,11.29,4c.25,0,.47.32.63.52s.48.59-.19,3.4a16,16,0,0,0,2.54,3.78A9.7,9.7,0,0,1,16,11.47c.78,0,1.26.18,1.45.56a1,1,0,0,1-.2,1.08,1.33,1.33,0,0,1-1.11.6A3.32,3.32,0,0,1,14,12.57,23.93,23.93,0,0,0,9.58,14,14.18,14.18,0,0,1,8.39,16.1C7.88,16.82,7.44,17.15,7,17.15Zm1.33-2.56c-1.07.6-1.5,1.09-1.53,1.37,0,0,0,.17.22.35C7.09,16.28,7.52,16.09,8.33,14.59Zm6.81-2.22c.41.31.51.47.77.47a.75.75,0,0,0,.6-.22.78.78,0,0,0,.11-.21c-.06,0-.14-.1-.59-.1A7.16,7.16,0,0,0,15.15,12.37ZM11.42,9.08a35.73,35.73,0,0,1-1.34,3.78,25,25,0,0,1,3.25-1A17.1,17.1,0,0,1,11.42,9.08Zm-.3-4.23a1.2,1.2,0,0,0,0,1.61C11.63,5.4,11.13,4.85,11.11,4.85Z" style="fill:#808285"/><path d="M4.69,26.58V21.14h2a1.29,1.29,0,0,1,.56.12,1.11,1.11,0,0,1,.42.34,1.59,1.59,0,0,1,.26.55,2.73,2.73,0,0,1,.09.74,2.54,2.54,0,0,1-.1.74,1.64,1.64,0,0,1-.28.55,1.17,1.17,0,0,1-.42.34,1.2,1.2,0,0,1-.53.12h-1v1.94ZM6.3,23.77a.64.64,0,0,0,.51-.21A1,1,0,0,0,7,22.89a1.08,1.08,0,0,0-.17-.66A.62.62,0,0,0,6.3,22H5.64v1.76Z" style="fill:#808285"/><path d="M9.49,26.58V21.14h1.89a1.78,1.78,0,0,1,.63.1,1.13,1.13,0,0,1,.42.27,1.2,1.2,0,0,1,.26.42,2.62,2.62,0,0,1,.13.55,5.51,5.51,0,0,1,0,.65q0,.35,0,.72t0,.72a5.51,5.51,0,0,1,0,.65,2.62,2.62,0,0,1-.13.55,1.19,1.19,0,0,1-.26.42,1.12,1.12,0,0,1-.42.27,1.78,1.78,0,0,1-.63.1Zm1.8-.87a.43.43,0,0,0,.35-.16,1,1,0,0,0,.18-.42,3.06,3.06,0,0,0,.07-.59c0-.22,0-.45,0-.69s0-.31,0-.46,0-.3,0-.43a3.33,3.33,0,0,0-.05-.38,1.11,1.11,0,0,0-.1-.3.54.54,0,0,0-.17-.2.45.45,0,0,0-.26-.07h-.85v3.7Z" style="fill:#808285"/><path d="M14.54,26.58V21.14h2.87V22H15.5v1.42h1.36v.87H15.5v2.28Z" style="fill:#808285"/></g></g></svg>