<svg xmlns="http://www.w3.org/2000/svg" viewBox="0 0 28.64 37"><defs><style>.cls-1{fill:none;stroke:#808285;stroke-miterlimit:10;}.cls-2{fill:#808285;}</style></defs><title>resources_zip_icon</title><g id="Layer_2" data-name="Layer 2"><g id="Reference_DesignsZIP" data-name="Reference DesignsZIP"><path class="cls-1" d="M.5,25.57H28.14a0,0,0,0,1,0,0V35a1.46,1.46,0,0,1-1.46,1.46H2A1.46,1.46,0,0,1,.5,35V25.57A0,0,0,0,1,.5,25.57Z"/><path class="cls-1" d="M20.1.5H1.44C.92.5.5.92.5,1.74V35.86a1,1,0,0,0,.94.64H27.2a1,1,0,0,0,.94-.64v-27c0-.45-.06-.59-.17-.7L20.5.67A.57.57,0,0,0,20.1.5Z"/><path class="cls-1" d="M20.43,1.39V8.21h6.82a.33.33,0,0,0,.23-.56L21,1.16A.33.33,0,0,0,20.43,1.39Z"/><path class="cls-2" d="M12.56,28.09v.85L9.48,33.58l-.18.14h3.26v.85H8.26v-.85l3.08-4.63.18-.14H8.26v-.85Z"/><path class="cls-2" d="M15.14,34.57H14.07V28.09h1.07Z"/><path class="cls-2" d="M17.8,34.57H16.75V28.09h1.86a2.62,2.62,0,0,1,.82.13,2.21,2.21,0,0,1,.73.4,2.07,2.07,0,0,1,.52.64,1.77,1.77,0,0,1,.2.84,2.3,2.3,0,0,1-.17.89,1.87,1.87,0,0,1-.47.67,2.1,2.1,0,0,1-.72.42,2.77,2.77,0,0,1-.93.15H17.8Zm0-5.68v2.57h1a1.16,1.16,0,0,0,.38-.07,1,1,0,0,0,.35-.22,1.06,1.06,0,0,0,.25-.42,2,2,0,0,0,.1-.66,1.78,1.78,0,0,0,0-.36,1,1,0,0,0-.56-.71,1.42,1.42,0,0,0-.65-.13Z"/><line class="cls-1" x1="14" y1="4.36" x2="14" y2="16.57"/><path class="cls-1" d="M11.43,16.57h5.14a0,0,0,0,1,0,0v2.57A2.57,2.57,0,0,1,14,21.71h0a2.57,2.57,0,0,1-2.57-2.57V16.57A0,0,0,0,1,11.43,16.57Z"/><line class="cls-1" x1="12.07" y1="14" x2="15.93" y2="14"/><line class="cls-1" x1="12.07" y1="11.43" x2="15.93" y2="11.43"/><line class="cls-1" x1="12.07" y1="8.86" x2="15.93" y2="8.86"/><line class="cls-1" x1="12.07" y1="6.29" x2="15.93" y2="6.29"/><line class="cls-1" x1="13.36" y1="19.14" x2="14.64" y2="19.14"/></g></g></svg>