<svg xmlns="http://www.w3.org/2000/svg" viewBox="0 0 168.88 100"><defs><style>.cls-1{fill:#2799CC;}</style></defs><title>Asset 3</title><g id="Layer_2" data-name="Layer 2"><g id="Layer_1-2" data-name="Layer 1"><path class="cls-1" d="M160.09,81.58c-10.7,0-16.22-14.12-23.43-35.49C129.38,24.51,121.14,0,98.38,0,76.06,0,65.9,24.13,56.91,45.44c-8.86,21-15.95,35.89-27,35.89C20,81.33,14.26,71,8.06,54.63L0,75.41C6.43,87.65,15.25,97,29.8,97,52.13,97,62.32,72.82,71.3,51.5c8.87-21,16-35.89,27.06-35.89,10.71,0,16.24,15.5,23.45,36.87C129.09,74.05,137.34,100,160.09,100h8.79V81.58Z"/></g></g></svg>